<svg width="120" height="120" viewBox="0 0 120 120" fill="none" xmlns="http://www.w3.org/2000/svg">
  <!-- Olive-green P shape: vertical stem, top curve, descending right, middle bar, lower loop -->
  <path d="M 20 20 
           L 20 30
           L 20 50
           L 20 70
           L 20 90
           L 20 100
           L 30 100
           L 50 100
           L 70 100
           L 75 100
           C 80 100, 85 95, 85 90
           L 85 80
           C 85 75, 80 70, 75 70
           L 60 70
           C 55 70, 50 65, 50 60
           C 50 55, 55 50, 60 50
           L 75 50
           C 80 50, 85 45, 85 40
           L 85 30
           C 85 25, 80 20, 75 20
           L 50 20
           L 30 20
           L 20 20
           Z" 
        fill="#6E7E55"/>
  
  <!-- Burnt orange wedge nested in lower-right section -->
  <path d="M 52 58 
           L 68 65 
           L 52 72 
           Z" 
        fill="#C97D60"/>
</svg>
