<svg width="120" height="120" viewBox="0 0 120 120" fill="none" xmlns="http://www.w3.org/2000/svg">
  <!-- Olive-green P shape with smooth rounded curves -->
  <!-- Vertical stem -> top horizontal bar (curved) -> descending right -> middle bar (curved left) -> lower loop -->
  <path d="M 20 20 
           C 20 20, 20 22, 20 25
           L 20 30
           L 20 50
           L 20 70
           L 20 90
           C 20 92, 20 95, 20 98
           L 20 100
           L 30 100
           L 50 100
           L 70 100
           C 72 100, 75 100, 78 100
           L 80 100
           C 85 100, 88 97, 88 92
           L 88 85
           C 88 80, 85 75, 80 75
           L 65 75
           C 60 75, 55 70, 55 65
           C 55 60, 60 55, 65 55
           L 80 55
           C 85 55, 88 52, 88 47
           L 88 40
           C 88 35, 85 30, 80 30
           L 70 30
           L 50 30
           L 30 30
           L 25 30
           C 22 30, 20 27, 20 25
           L 20 20
           Z" 
        fill="#6E7E55"/>
  
  <!-- Burnt orange wedge in lower-right section of P loop -->
  <!-- Top-left vertex points upper-left, bottom-left below it, rightmost extends horizontally -->
  <path d="M 55 58 
           L 72 66 
           L 55 74 
           Z" 
        fill="#C97D60"/>
</svg>
